<mxfile host="drawio-plugin" modified="2021-12-24T15:03:42.002Z" agent="5.0 (Windows NT 6.2; Win64; x64) AppleWebKit/537.36 (KHTML, like Gecko) Chrome/89.0.4389.114 Safari/537.36" etag="L1xnw6ffSIh7-xxoAyT2" version="14.7.4" type="embed" pages="2"><diagram id="4JsUxAiySDPQtdLla153" name="Page-1"><mxGraphModel dx="414" dy="361" grid="1" gridSize="10" guides="1" tooltips="1" connect="1" arrows="1" fold="1" page="1" pageScale="1" pageWidth="827" pageHeight="1169" math="0" shadow="0"><root><mxCell id="0"/><mxCell id="1" parent="0"/><mxCell id="kDhTbPjexYdh9FyA43il-3" value="" style="edgeStyle=orthogonalEdgeStyle;rounded=0;orthogonalLoop=1;jettySize=auto;html=1;" parent="1" source="kDhTbPjexYdh9FyA43il-1" target="kDhTbPjexYdh9FyA43il-2" edge="1"><mxGeometry relative="1" as="geometry"/></mxCell><mxCell id="kDhTbPjexYdh9FyA43il-1" value="Visiteur, Lecteur" style="shape=umlActor;verticalLabelPosition=bottom;verticalAlign=top;html=1;outlineConnect=0;" parent="1" vertex="1"><mxGeometry x="170" y="80" width="30" height="60" as="geometry"/></mxCell><mxCell id="kDhTbPjexYdh9FyA43il-2" value="Ne voit que les entrées validées" style="ellipse;whiteSpace=wrap;html=1;verticalAlign=middle;" parent="1" vertex="1"><mxGeometry x="380" y="30" width="120" height="60" as="geometry"/></mxCell><mxCell id="kDhTbPjexYdh9FyA43il-6" value="" style="edgeStyle=orthogonalEdgeStyle;rounded=0;orthogonalLoop=1;jettySize=auto;html=1;" parent="1" source="kDhTbPjexYdh9FyA43il-4" target="kDhTbPjexYdh9FyA43il-5" edge="1"><mxGeometry relative="1" as="geometry"/></mxCell><mxCell id="kDhTbPjexYdh9FyA43il-11" value="" style="edgeStyle=orthogonalEdgeStyle;rounded=0;orthogonalLoop=1;jettySize=auto;html=1;" parent="1" source="kDhTbPjexYdh9FyA43il-4" target="kDhTbPjexYdh9FyA43il-10" edge="1"><mxGeometry relative="1" as="geometry"/></mxCell><mxCell id="kDhTbPjexYdh9FyA43il-15" value="" style="edgeStyle=orthogonalEdgeStyle;rounded=0;orthogonalLoop=1;jettySize=auto;html=1;" parent="1" source="kDhTbPjexYdh9FyA43il-4" target="kDhTbPjexYdh9FyA43il-14" edge="1"><mxGeometry relative="1" as="geometry"/></mxCell><mxCell id="kDhTbPjexYdh9FyA43il-4" value="Contributeur" style="shape=umlActor;verticalLabelPosition=bottom;verticalAlign=top;html=1;outlineConnect=0;" parent="1" vertex="1"><mxGeometry x="170" y="210" width="30" height="60" as="geometry"/></mxCell><mxCell id="kDhTbPjexYdh9FyA43il-5" value="Toute nouvelle entrée n'est pas validée" style="ellipse;whiteSpace=wrap;html=1;verticalAlign=middle;" parent="1" vertex="1"><mxGeometry x="530" y="210" width="190" height="60" as="geometry"/></mxCell><mxCell id="kDhTbPjexYdh9FyA43il-9" value="" style="edgeStyle=orthogonalEdgeStyle;rounded=0;orthogonalLoop=1;jettySize=auto;html=1;" parent="1" source="kDhTbPjexYdh9FyA43il-7" target="kDhTbPjexYdh9FyA43il-8" edge="1"><mxGeometry relative="1" as="geometry"/></mxCell><mxCell id="kDhTbPjexYdh9FyA43il-13" value="" style="edgeStyle=orthogonalEdgeStyle;rounded=0;orthogonalLoop=1;jettySize=auto;html=1;" parent="1" source="kDhTbPjexYdh9FyA43il-7" target="kDhTbPjexYdh9FyA43il-12" edge="1"><mxGeometry relative="1" as="geometry"/></mxCell><mxCell id="kDhTbPjexYdh9FyA43il-7" value="Gestionnaire" style="shape=umlActor;verticalLabelPosition=bottom;verticalAlign=top;html=1;outlineConnect=0;" parent="1" vertex="1"><mxGeometry x="160" y="350" width="30" height="60" as="geometry"/></mxCell><mxCell id="kDhTbPjexYdh9FyA43il-8" value="Toute nouvelle entrée est déjà validée." style="ellipse;whiteSpace=wrap;html=1;verticalAlign=middle;" parent="1" vertex="1"><mxGeometry x="470" y="350" width="120" height="60" as="geometry"/></mxCell><mxCell id="kDhTbPjexYdh9FyA43il-10" value="Peut lire et modifier ses entrées non encore validées" style="ellipse;whiteSpace=wrap;html=1;verticalAlign=middle;" parent="1" vertex="1"><mxGeometry x="275" y="280" width="190" height="60" as="geometry"/></mxCell><mxCell id="kDhTbPjexYdh9FyA43il-12" value="Peut voir les entrées à valider et qui les a écrites&amp;nbsp;" style="ellipse;whiteSpace=wrap;html=1;verticalAlign=middle;" parent="1" vertex="1"><mxGeometry x="290" y="430" width="160" height="60" as="geometry"/></mxCell><mxCell id="kDhTbPjexYdh9FyA43il-14" value="Ne peut pas voir les entrées non encore validées des autres contributeurs" style="ellipse;whiteSpace=wrap;html=1;verticalAlign=middle;" parent="1" vertex="1"><mxGeometry x="330" y="110" width="160" height="90" as="geometry"/></mxCell></root></mxGraphModel></diagram><diagram id="moBVdDYbZD5NaldZmEP5" name="Page-2"><mxGraphModel dx="414" dy="361" grid="1" gridSize="10" guides="1" tooltips="1" connect="1" arrows="1" fold="1" page="1" pageScale="1" pageWidth="827" pageHeight="1169" math="0" shadow="0"><root><mxCell id="WgPoqEFt5y4-oW4lnpQc-0"/><mxCell id="WgPoqEFt5y4-oW4lnpQc-1" parent="WgPoqEFt5y4-oW4lnpQc-0"/></root></mxGraphModel></diagram></mxfile>